<?xml version="1.0" encoding="UTF-8"?>
<svg id="Livello_2" data-name="Livello 2" xmlns="http://www.w3.org/2000/svg" viewBox="0 0 2479.93 497.34">
  <g id="Livello_1-2" data-name="Livello 1">
    <g>
      <path d="M2184.46,495.38V1.25h294.47v494.13h-294.47ZM2281.19,397.34h101V98.29h-101v299.05Z"/>
      <path d="M2478.43,1.75v493.13h-293.47V1.75h293.47M2280.69,397.84h102V97.79h-102v300.05M2479.43.75h-295.47v495.13h295.47V.75h0ZM2281.69,396.84V98.79h100v298.05h-100Z"/>
    </g>
    <g>
      <polygon points="1987.12 495.13 1987.12 98.04 1886.12 98.04 1886.12 197.09 1788.12 197.09 1788.12 1 2083.86 1 2083.86 495.13 1987.12 495.13"/>
      <path d="M2083.36,1.5v493.13h-95.74V97.54h-102v99.05h-97V1.5h294.74M2084.36.5h-296.74v197.09h99v-99.05h100v397.09h97.74V.5h0Z"/>
    </g>
    <g>
      <path d="M497.5,495.63V1.5h197.74v-.5h98v494.13h-98v-199.04h-2v.5h-99v199.04h-96.74ZM594.24,199.54h101v-101.5h-2v.5h-99v101Z"/>
      <path d="M792.74,1.5v493.13h-97v-199.04h-3v.5h-99v199.04h-95.74V2h197.74v-.5h97M692.74,98.04h-99v102h102v-102.5h-3v.5M793.74.5h-99v.5h-197.74v495.13h97.74v-199.04h99v-.5h1v199.04h99V.5h0ZM594.74,199.04v-100h99v-.5h1v100.5h-100Z"/>
    </g>
    <g>
      <polygon points="895.11 495.38 895.11 397.34 1092.84 397.34 1092.84 296.34 895.11 296.34 895.11 1.25 1189.58 1.25 1189.58 98.29 991.84 98.29 991.84 199.29 1189.58 199.29 1189.58 495.38 895.11 495.38"/>
      <path d="M1189.08,1.75v96.04h-197.74v102h197.74v295.09h-293.47v-97.04h197.73v-102h-197.73V1.75h293.47M1190.08.75h-295.47v296.09h197.73v100h-197.73v99.04h295.47V198.79h-197.74v-100h197.74V.75h0Z"/>
    </g>
    <g>
      <path d="M1290.98,496.34V2.21h197.74v-.5h98v494.13h-98v-199.04h-2v.5h-99v199.04h-96.74ZM1387.72,200.25h101v-101.5h-2v.5h-99v101Z"/>
      <path d="M1586.22,2.21v493.13h-97v-199.04h-3v.5h-99v199.04h-95.74V2.71h197.74v-.5h97M1486.22,98.75h-99v102h102v-102.5h-3v.5M1587.22,1.21h-99v.5h-197.74v495.13h97.74v-199.04h99v-.5h1v199.04h99V1.21h0ZM1388.22,199.75v-100h99v-.5h1v100.5h-100Z"/>
    </g>
    <polygon points="397 .5 397 496.13 298 496.13 298 495.88 248 495.88 248 496.13 149 496.13 149 100.5 99 100.5 99 496.13 0 496.13 0 .5 248 .5 248 395.88 298 395.88 298 .5 397 .5"/>
  </g>
</svg>